<svg xmlns="http://www.w3.org/2000/svg" viewBox="0 0 32 32" fill="#25D366">
  <path d="M16 2.7A13.3 13.3 0 002.7 16c0 2.4.6 4.7 1.7 6.7L2 30l7.5-2.3a13.2 13.2 0 006.5 1.7 13.3 13.3 0 0013.3-13.3A13.3 13.3 0 0016 2.7zm0 24.6c-2.1 0-4.2-.6-6-1.7l-.4-.2-4.4 1.3 1.3-4.3-.3-.4A11.2 11.2 0 014.8 16c0-6.1 5-11.2 11.2-11.2S27.2 9.9 27.2 16c0 6.1-5 11.2-11.2 11.2zm6.1-8.4c-.3-.2-1.6-.8-1.9-.9s-.4-.2-.6.2-.7.9-.9 1.1c-.2.2-.3.2-.6.1a9.2 9.2 0 01-2.7-1.7 10 10 0 01-1.8-2.3c-.2-.3 0-.4.1-.6.1-.2.3-.3.4-.5.1-.1.2-.3.3-.5.1-.2 0-.4 0-.6 0-.2-.6-1.4-.8-1.9s-.4-.4-.6-.4h-.5c-.2 0-.6.1-.9.4s-1.2 1.2-1.2 2.8 1.2 3.2 1.3 3.4c.2.3 2.4 3.8 5.8 5.1 2.2.9 3.1 1 3.9.9.6-.1 1.9-.8 2.2-1.5.3-.6.3-1.3.2-1.5s-.4-.3-.7-.5z"/>
</svg>
