<svg xmlns="http://www.w3.org/2000/svg" viewBox="0 0 48 48" fill="#0077FF">
  <path d="M24 0C10.8 0 0 10.8 0 24s10.8 24 24 24 24-10.8 24-24S37.2 0 24 0zm8.8 33.6h-3c-1.6 0-2-1.2-4.8-3.9-1.2-1.2-1.7-1.4-2-.2-.2.7-.4 1.9-.4 1.9-.1.3-.2.6-.7.6h-2.1c-.7 0-1.1-.3-1.3-.9 0 0-1.2-3.1-2.8-5.8-1.3-2.2-2.7-4.4-2.7-4.6-.2-.5.1-.8.7-.8h3.1c.6 0 .9.2 1.1.7 0 0 1.5 3 2.2 4.3.3.6.6.7.8.4.2-.2.2-.6.2-.9v-3.4c0-.7-.2-1-.8-1h-1.3c-.6 0-.8-.3-.8-.7V15c0-.6.3-.8.9-.8h3.9c.6 0 .9.2 1 .7v6.2c0 .4 0 .6.3.7.2 0 .5 0 .8-.3 1.2-1.3 2.2-3 2.2-3 0-.1.2-.3.5-.3h3.6c.7 0 .9.4.6 1-.2.4-2 3-2.9 4.2-.4.5-.6.7-.2 1.2.4.5 1.5 1.4 2.3 2.4 1.4 1.6 2.1 2.7 2.4 3.3.4.8 0 1.3-.9 1.3z"/>
</svg>
